<?xml version="1.0" encoding="UTF-8" standalone="no"?>
<!-- Created with Inkscape (http://www.inkscape.org/) -->

<svg
   xmlns:dc="http://purl.org/dc/elements/1.1/"
   xmlns:cc="http://creativecommons.org/ns#"
   xmlns:rdf="http://www.w3.org/1999/02/22-rdf-syntax-ns#"
   xmlns:svg="http://www.w3.org/2000/svg"
   xmlns="http://www.w3.org/2000/svg"
   xmlns:sodipodi="http://sodipodi.sourceforge.net/DTD/sodipodi-0.dtd"
   xmlns:inkscape="http://www.inkscape.org/namespaces/inkscape"
   width="56.531551mm"
   height="30.928047mm"
   viewBox="0 0 56.531551 30.928047"
   version="1.1"
   id="svg942"
   sodipodi:docname="20.svg"
   inkscape:version="0.92.5 (2060ec1f9f, 2020-04-08)"
   inkscape:export-filename="C:\Users\akuma\Desktop\Logos\19.png"
   inkscape:export-xdpi="96"
   inkscape:export-ydpi="96">
  <defs
     id="defs936" />
  <sodipodi:namedview
     id="base"
     pagecolor="#ffffff"
     bordercolor="#666666"
     borderopacity="1.0"
     inkscape:pageopacity="0.0"
     inkscape:pageshadow="2"
     inkscape:zoom="3.959798"
     inkscape:cx="72.210801"
     inkscape:cy="138.69749"
     inkscape:document-units="mm"
     inkscape:current-layer="layer1"
     showgrid="false"
     inkscape:window-width="3840"
     inkscape:window-height="2120"
     inkscape:window-x="3348"
     inkscape:window-y="-12"
     inkscape:window-maximized="1" />
  <metadata
     id="metadata939">
    <rdf:RDF>
      <cc:Work
         rdf:about="">
        <dc:format>image/svg+xml</dc:format>
        <dc:type
           rdf:resource="http://purl.org/dc/dcmitype/StillImage" />
        <dc:title></dc:title>
      </cc:Work>
    </rdf:RDF>
  </metadata>
  <g
     inkscape:label="Layer 1"
     inkscape:groupmode="layer"
     id="layer1"
     transform="translate(-100.98949,-89.139562)">
    <path
       inkscape:connector-curvature="0"
       id="path5194"
       style="font-style:normal;font-weight:bold;font-size:42.33333206px;line-height:1.25;font-family:sans-serif;letter-spacing:0px;word-spacing:0px;display:inline;fill:#000000;fill-opacity:1;stroke:none;stroke-width:0.20954679"
       d="m 116.8419,114.65192 v 5.41569 h -3.55249 c -2.37925,0 -4.48007,-0.40052 -5.57146,-1.36094 -1.09139,-0.96043 -1.63709,-2.49383 -1.63709,-4.60021 v -3.1432 c 0,-1.63708 -0.29468,-2.77213 -0.88404,-3.40514 -0.58935,-0.64391 -1.65891,-0.96587 -3.2087,-0.96587 h -0.99863 v -3.6507 h 0.99863 c 1.54979,0 2.61935,-0.3165 3.2087,-0.94951 0.58936,-0.63301 0.88404,-1.76805 0.88404,-3.405135 V 95.23088 c 0,-2.106383 0.5457,-3.634328 1.63709,-4.583837 1.09139,-0.960423 2.82671,-1.440634 5.20596,-1.440634 l 3.91797,3e-5 v 5.41569 h -1.12959 c -1.53887,0 -2.54295,0.240106 -3.01226,0.720317 -0.45838,0.469297 -0.98893,0.978048 -1.02166,2.527476 l -0.0314,1.486415 c -0.0362,1.713103 -0.24557,2.957663 -0.7367,3.732553 -0.49113,0.77489 -1.33696,1.29875 -2.53749,1.5716 1.21145,0.29467 1.91661,0.81953 2.53749,1.60434 0.42554,0.5379 0.55668,1.26905 0.66988,1.94552 0.14951,0.89343 0,2.71756 0,2.71756 0,1.56069 0.22919,2.57569 0.68757,3.04498 0.46931,0.48021 1.4734,0.72032 3.01226,0.72032 z"
       inkscape:export-xdpi="96"
       inkscape:export-ydpi="96"
       sodipodi:nodetypes="ccscsscsccscsscsccscssccaascsc"
       inkscape:label="{" />
    <g
       id="g5281"
       style="display:inline">
      <path
         inkscape:export-ydpi="96"
         inkscape:export-xdpi="96"
         sodipodi:nodetypes="ccccc"
         d="M 148.43533,100.92621 H 136.2521 v 6.01514 h 12.18323 z"
         style="font-style:normal;font-weight:bold;font-size:42.33333206px;line-height:1.25;font-family:sans-serif;letter-spacing:0px;word-spacing:0px;display:inline;fill:#000000;fill-opacity:1;stroke:none;stroke-width:0.26458332"
         id="path5198"
         inkscape:connector-curvature="0"
         inkscape:label="-" />
      <path
         sodipodi:nodetypes="cccscccsccccccscsscsccscsscsccccsc"
         inkscape:connector-curvature="0"
         id="path5216"
         transform="matrix(0.26458333,0,0,0.26458333,100.98949,89.139562)"
         d="m 91.173828,0.2734375 c 5.479935,1.2212003 9.956352,2.990563 13.404292,5.3222656 5.24611,3.5223977 8.5947,8.5776059 10.06641,15.1464849 h 35.02539 c 5.8162,0 9.611,0.907685 11.38477,2.722656 1.73246,1.773721 3.73762,3.696628 3.86133,9.552734 l 0.11914,5.617188 c 0.13682,6.474731 -0.39692,12.062586 1.45932,14.991305 1.85624,2.928718 6.37824,4.024326 10.91568,5.05557 -4.57871,1.113713 -8.76107,1.535742 -11.10771,4.501953 -1.20655,1.988365 -0.98929,3.636064 -1.01534,8.916015 0.0599,4.001744 0,10.271485 0,10.271485 0,5.898671 -29.88672,4.074218 -29.88672,4.074218 v 30.468748 h 23.42773 c 8.99245,0 16.93171,-1.51459 21.05665,-5.14453 4.12493,-3.62997 6.1875,-9.4256 6.1875,-17.386718 V 82.503906 c 0,-6.187389 1.11429,-10.476662 3.34179,-12.86914 2.22747,-2.433676 6.26948,-3.650391 12.12696,-3.650391 h 3.77343 V 52.185547 h -3.77343 c -5.85748,0 -9.89949,-1.195412 -12.12696,-3.587891 -2.2275,-2.392478 -3.34179,-6.683674 -3.34179,-12.871094 V 23.042969 c 0,-7.961133 -2.06257,-13.7355236 -6.1875,-17.324219 C 175.75983,2.0888048 169.20143,0.2734375 160.20898,0.2734375 Z M 65.400391,18.720703 v 2.021485 h 14.677734 c -2.316307,-1.339618 -5.33978,-2.021485 -9.09375,-2.021485 z"
         style="font-style:normal;font-weight:bold;font-size:42.33333206px;line-height:1.25;font-family:sans-serif;letter-spacing:0px;word-spacing:0px;display:inline;fill:#000000;fill-opacity:1;stroke:none;stroke-width:0.79198784"
         inkscape:label="}" />
    </g>
    <path
       sodipodi:nodetypes="ccscscsccscscsccscscccscsc"
       inkscape:export-ydpi="96"
       inkscape:export-xdpi="96"
       inkscape:connector-curvature="0"
       id="path5283"
       d="m 116.8419,89.206439 v 5.41569 h 2.39985 c 1.25402,0 2.20487,0.282499 2.85254,0.847495 0.64768,0.551215 0.97152,1.357368 0.97152,2.418456 0,1.07487 -0.32384,1.88791 -0.97152,2.43913 -0.64767,0.55121 -1.59852,0.82682 -2.85254,0.82682 l -6.52582,0.0668 v 5.41569 l 6.79454,-0.0668 c 1.61223,-0.0159 2.81809,0.33762 3.61735,1.01286 0.79926,0.66146 1.19889,1.66054 1.19889,2.99723 0,1.36426 -0.40652,2.38401 -1.21956,3.05925 -0.79926,0.67523 -1.99815,1.01286 -3.59668,1.01286 h -1.61024 v 5.41569 h 2.18902 c 4.10655,0 7.1658,-0.73037 9.17773,-2.19109 2.01193,-1.46071 3.0179,-3.67936 3.0179,-6.65592 0,-1.94303 -0.46854,-3.5829 -1.4056,-4.9196 -0.93706,-1.33669 -2.25998,-2.25309 -3.96875,-2.74918 1.3367,-0.50988 2.35645,-1.28846 3.05925,-2.33578 0.7028,-1.06108 1.0542,-2.342662 1.0542,-3.844723 0,-2.852539 -0.96463,-4.926486 -2.89388,-6.221844 -1.91547,-1.295355 -5.01606,-1.943034 -9.30176,-1.943034 z"
       style="font-style:normal;font-weight:bold;font-size:42.33333206px;line-height:1.25;font-family:sans-serif;letter-spacing:0px;word-spacing:0px;display:inline;fill:#000000;fill-opacity:1;stroke:none;stroke-width:0.26458332"
       inkscape:label="B" />
    <path
       style="font-style:normal;font-weight:bold;font-size:42.33333206px;line-height:1.25;font-family:sans-serif;letter-spacing:0px;word-spacing:0px;display:inline;fill:#000000;fill-opacity:1;stroke:none;stroke-width:0.23787013"
       mask="none"
       d="m 131.13602,105.93776 c -0.7395,-1.14083 -1.73537,-1.93615 -2.98761,-2.38594 1.08041,-0.50988 1.90464,-1.28846 2.47269,-2.33578 0.21047,-0.39313 0.38194,-0.81654 0.51442,-1.270207"
       id="path5355"
       inkscape:connector-curvature="0" />
    <path
       style="font-style:normal;font-weight:bold;font-size:42.33333206px;line-height:1.25;font-family:sans-serif;letter-spacing:0px;word-spacing:0px;display:inline;fill:#000000;fill-opacity:1;stroke:none;stroke-width:0.254859"
       d="m 131.14062,116.91151 c -0.47623,0.72953 -1.09981,1.35578 -1.87379,1.87716 -1.05301,0.70935 -2.39568,1.23123 -4.02249,1.56933 v 1.26198 h 5.89628 v -4.70847"
       id="path5361"
       inkscape:connector-curvature="0"
       sodipodi:nodetypes="cccccc" />
  </g>
</svg>
